<svg viewBox="0 0 512 512" xml:space="preserve" xmlns="http://www.w3.org/2000/svg"><g fill="#7a3ec5" class="fill-964dd4"><path d="M256.7 507.9C120 507.5 7.8 396.4 8.5 255.6 9.1 116.5 121.2 4.7 260 6.2c135.2 1.5 246.6 112.2 245.5 252.9-1 138.4-112 248.6-248.8 248.8zm.4-482c-124.2-.4-227.7 100.8-229 228.6-1.3 130.7 103 232.5 226.4 233.8 126.1 1.3 230.7-100.7 231.4-229.1.6-129.7-101.6-233.3-228.8-233.3z"></path><path d="M413.1 259.9c0 22-.6 44 .1 66 1.4 39-24.7 71.2-58.6 83.8-11.3 4.2-23 6.5-35.1 6.5-41.8-.1-83.6.4-125.5-.2-35.1-.5-62.9-15.2-81.8-45.3-7.4-11.8-11.2-24.9-11.3-38.8-.2-47.8-.6-95.6.1-143.5.4-30.8 16.1-53.5 41.6-69.8 16.3-10.4 34.4-14.8 53.6-14.8 41.2 0 82.3-.3 123.5.1 32.4.4 59.1 13.2 78.4 39.7 9.8 13.5 15 28.8 15 45.7v70.6zm-289.1-.1v69.5c0 9 1.9 17.5 6.1 25.5 13.8 26 36.5 37.7 64.9 38.1 40.6.6 81.3.1 121.9.2 10.9 0 21.5-1.9 31.7-5.9 25.4-10 41.4-33.1 41.4-60.3V191.5c0-12.9-3.6-24.6-11.4-35-14.9-19.8-35.3-29-59.6-29.2-41.3-.4-82.6-.2-123.9-.1-9.2 0-18.1 1.8-26.8 4.9-25.4 9.2-45.4 32.7-44.4 63.3.7 21.4.1 42.9.1 64.4z"></path><path d="M257.3 182c40.7 0 73.7 32.5 73.6 72.6-.1 39.7-33.2 72.3-73.5 72.3-40.7 0-73.4-32.4-73.4-72.7 0-40 32.7-72.2 73.3-72.2zm50 72.3c-.1-27.1-22.5-49.1-50.1-49.1-27.3 0-50.1 22.4-50.1 49.3 0 27 22.5 48.9 50.3 48.9 27.9-.1 50-21.8 49.9-49.1zM323.9 176.1c-.1-9.1 6.7-16.2 15.3-16.2 8.5 0 15.7 7.4 15.6 16.1 0 8.8-7.3 16.1-15.8 16-8.4-.1-15.1-7.1-15.1-15.9z"></path></g></svg>