<svg width="121" height="72" viewBox="0 0 61 12" fill="none" xmlns="http://www.w3.org/2000/svg">
<path d="M7.51953 9.8584L0.649414 6.87109V5.2168L7.51953 2.24316V4.19141L2.72754 6.02344L7.51953 7.92383V9.8584ZM8.15527 11.1709L10.6367 0.807617H12.0791L9.57031 11.1709H8.15527ZM15.6475 11L12.0654 0.978516H14.2598L16.7959 8.39551L19.25 0.978516H21.3965L17.8076 11H15.6475ZM22.3672 11V0.978516H24.3906V11H22.3672ZM26.3799 11V1.06055H28.4033V9.31152H33.4346V11H26.3799ZM43.9209 11H41.7197L40.8447 8.72363H36.8389L36.0117 11H33.8652L37.7686 0.978516H39.9082L43.9209 11ZM40.1953 7.03516L38.8145 3.31641L37.4609 7.03516H40.1953ZM44.4883 7.73926L46.457 7.54785C46.5755 8.20866 46.8148 8.69401 47.1748 9.00391C47.5394 9.3138 48.0293 9.46875 48.6445 9.46875C49.2962 9.46875 49.7861 9.33203 50.1143 9.05859C50.4469 8.7806 50.6133 8.45703 50.6133 8.08789C50.6133 7.85091 50.5426 7.65039 50.4014 7.48633C50.2646 7.31771 50.0231 7.17188 49.6768 7.04883C49.4398 6.9668 48.8997 6.82096 48.0566 6.61133C46.972 6.34245 46.2109 6.01204 45.7734 5.62012C45.1582 5.06868 44.8506 4.39648 44.8506 3.60352C44.8506 3.0931 44.9941 2.61686 45.2812 2.1748C45.5729 1.72819 45.9899 1.38867 46.5322 1.15625C47.0791 0.923828 47.7376 0.807617 48.5078 0.807617C49.7656 0.807617 50.7113 1.08333 51.3447 1.63477C51.9827 2.1862 52.3177 2.9222 52.3496 3.84277L50.3262 3.93164C50.2396 3.41667 50.0527 3.04753 49.7656 2.82422C49.4831 2.59635 49.057 2.48242 48.4873 2.48242C47.8994 2.48242 47.4391 2.60319 47.1064 2.84473C46.8923 2.99967 46.7852 3.20703 46.7852 3.4668C46.7852 3.70378 46.8854 3.90658 47.0859 4.0752C47.3411 4.28939 47.9609 4.5127 48.9453 4.74512C49.9297 4.97754 50.6566 5.21908 51.126 5.46973C51.5999 5.71582 51.9691 6.05534 52.2334 6.48828C52.5023 6.91667 52.6367 7.44759 52.6367 8.08105C52.6367 8.65527 52.4772 9.19303 52.1582 9.69434C51.8392 10.1956 51.388 10.5693 50.8047 10.8154C50.2214 11.057 49.4945 11.1777 48.624 11.1777C47.3571 11.1777 46.3841 10.8861 45.7051 10.3027C45.026 9.71484 44.6204 8.86035 44.4883 7.73926ZM53.9697 9.86523V7.93066L58.7686 6.04395L53.9697 4.17773V2.25684L60.8467 5.23047V6.87109L53.9697 9.86523Z" fill="white"/>
</svg>
