<svg width="19" height="10" viewBox="0 0 19 10" fill="none" xmlns="http://www.w3.org/2000/svg">
<path d="M0.216797 0.296875H0.673828L4.2832 9.43164L7.89258 0.296875H8.34375L4.51172 10H4.05469L0.216797 0.296875ZM4.57617 7.89062L4.33594 8.42969L1.125 0.296875H1.57617L4.57617 7.89062ZM5.02734 6.73633L4.80469 7.31641L2.0332 0.296875H2.49023L5.02734 6.73633ZM5.47266 5.56445L5.25 6.15625L2.94141 0.296875H3.39258L5.47266 5.56445ZM10.6113 0.296875H11.0684L7.23047 10H6.7793L10.6113 0.296875ZM9.70898 0.296875H10.1602L6.32227 10H5.87109L9.70898 0.296875ZM8.79492 0.296875H9.25195L5.41406 10H4.96289L8.79492 0.296875ZM11.8418 0.296875H12.2637V10H11.8418V0.296875ZM14.373 0.296875H14.7949V7.89062H18.1699V8.3125H14.7949V8.73438H18.1699V9.15625H14.7949V9.57812H18.1699V10H14.373V0.296875ZM13.5293 0.296875H13.9512V10H13.5293V0.296875ZM12.6855 0.296875H13.1074V10H12.6855V0.296875Z" fill="url(#paint0_linear_224_4)"/>
<defs>
<linearGradient id="paint0_linear_224_4" x1="19" y1="-1.5" x2="19" y2="21" gradientUnits="userSpaceOnUse">
<stop offset="0.401042" stop-color="white"/>
<stop offset="0.854167" stop-opacity="0"/>
<stop offset="0.942708" stop-color="white" stop-opacity="0.0572917"/>
<stop offset="0.979167" stop-color="white" stop-opacity="0.0572916"/>
</linearGradient>
</defs>
</svg>
